# xmcd
#
# Track frame offsets: 
#        150
#        20669
#        38744
#        58391
#        81048
#        98996
#        119521
#        145873
#        169521
#        191623
#
# Disc length: 2885 seconds
#
# Revision: 0
# Processed by: cddbd v1.5.2PL0 Copyright (c) Steve Scherf et al.
# Submitted via: ExactAudioCopyFreeDBPlugin 1.0
#
DISCID=870b430a
DTITLE=Khanh Ha - Ngam ngui
DYEAR=1900
DGENRE=
TTITLE0=Thuyen vien xu
TTITLE1=Cat bui tinh xa
TTITLE2=Noi niem
TTITLE3=Ngam ngui
TTITLE4=Mua thu cho em
TTITLE5=hay khoc di em
TTITLE6=Tro ve ben mo
TTITLE7=Mat biec
TTITLE8=Mot ngay nhu moi ngay
TTITLE9=Tu giong hat em
EXTD=
EXTT0=
EXTT1=
EXTT2=
EXTT3=
EXTT4=
EXTT5=
EXTT6=
EXTT7=
EXTT8=
EXTT9=
PLAYORDER=
